<mxfile host="app.diagrams.net" modified="2024-08-24T19:24:04.855Z" agent="Mozilla/5.0 (Macintosh; Intel Mac OS X 10_15_7) AppleWebKit/537.36 (KHTML, like Gecko) Chrome/127.0.0.0 Safari/537.36" version="24.5.2" etag="aKjQMnd8OObVs18TVmNx" type="github">
  <diagram name="Page-1" id="UKjYGzklQM2FpbFOX81e">
    <mxGraphModel>
      <root>
        <mxCell id="0" />
        <mxCell id="1" parent="0" />
      </root>
    </mxGraphModel>
  </diagram>
</mxfile>
